<?xml version="1.0" encoding="UTF-8" standalone="no"?>
<svg width="77px" height="75px" viewBox="0 0 77 75" version="1.1" xmlns="http://www.w3.org/2000/svg" xmlns:xlink="http://www.w3.org/1999/xlink">
    <defs></defs>
    <g id="Page-1" stroke="none" stroke-width="1" fill="none" fill-rule="evenodd">
        <g id="individual-buckets" transform="translate(-362.000000, -29.000000)">
            <g id="bucket_icon/startup-stories" transform="translate(362.500000, 29.000000)">
                <g id="startups_base">
                    <circle id="Oval-6" stroke="#979797" fill="#D8D8D8" cx="38.5" cy="39.5" r="34.25"></circle>
                    <path d="M1.09966117,49.7407143 C0.145161166,48.5372143 -0.216481691,46.9720714 0.127375452,45.4721429 L6.69030402,16.7185714 C7.03416117,15.2245714 8.03608974,13.9617857 9.41744688,13.2977857 L35.9952326,0.498 C37.3765897,-0.166 38.9832326,-0.166 40.3645897,0.498 L66.9423755,13.2977857 C68.3237326,13.9617857 69.3256612,15.2245714 69.6695183,16.7185714 L76.2324469,45.4721429 C76.576304,46.9720714 76.2146612,48.5372143 75.2601612,49.7407143 C75.2601612,49.7407143 58.3003924,71.2039515 56.8697326,72.8028571 C55.4390728,74.4017628 54.4627326,74.7 52.9272326,74.7 L23.4325897,74.7 C21.8970897,74.7 20.4445897,74.0004286 19.4900897,72.8028571 L1.09966117,49.7407143 Z" fill="#643DBA"></path>
                </g>
                <path d="M24.8121622,25.7364034 C25.6654955,25.4780701 26.5671622,25.9597368 26.8254955,26.8130701 L36.1954955,56.9780701 C36.4538288,57.8314034 35.9721622,58.7314034 35.1188288,58.9914034 C34.2654955,59.2497368 33.3638288,58.7680701 33.1054955,57.9147368 L23.7371622,27.7497368 C23.4771622,26.8964034 23.9588288,25.9947368 24.8121622,25.7364034 Z M31.1404955,24.7097368 C28.7338288,25.6797368 28.4104955,27.0097368 28.8554955,28.4547368 C29.2988288,29.8980701 32.3004955,39.8530701 32.6621622,40.9714034 C33.0254955,42.0897368 34.1054955,42.7497368 35.1171622,42.1980701 C38.2421622,40.4914034 39.9854955,40.4430701 44.6521622,41.3347368 C49.3188288,42.2280701 53.8454955,38.3247368 55.2621622,30.8147368 C55.4304955,29.8664034 54.5338288,29.1797368 53.8838288,29.5030701 C53.2338288,29.8264034 48.2704955,32.7564034 43.0138288,27.5264034 C39.3188288,23.5480701 35.5888288,22.9164034 31.1404955,24.7097368 Z" id="flag" fill="#E2DDED"></path>
            </g>
        </g>
    </g>
</svg>