<?xml version="1.0" encoding="UTF-8" standalone="no"?>
<svg width="117px" height="70px" viewBox="0 0 117 70" version="1.1" xmlns="http://www.w3.org/2000/svg" xmlns:xlink="http://www.w3.org/1999/xlink">
    <defs></defs>
    <g id="Page-1" stroke="none" stroke-width="1" fill="none" fill-rule="evenodd">
        <g id="logos_collections" transform="translate(-542.000000, -143.000000)" fill="#EEEBF5">
            <path d="M630.651958,149.687906 C642.590677,147.472548 651.032638,148.402784 652.798086,153.005567 C656.080258,161.576637 642.498015,176.094761 605.90155,193.145492 C571.836211,209.018641 550.39236,210.819964 547.105311,202.248894 C545.276463,197.474044 550.168022,190.171965 560.346169,182.079455 C561.633678,181.057809 563.447895,181.907388 563.681988,183.638809 L563.945342,185.601444 C564.111158,186.822042 563.638096,188.037263 562.730987,188.763169 C556.073981,194.091859 552.713778,198.16231 553.191717,199.409794 C554.12321,201.829481 573.328551,200.840098 603.467963,186.795157 C635.845886,171.712439 647.794358,158.673012 646.965281,156.511425 C646.497096,155.290827 641.332429,155.172531 633.436684,156.522179 C632.344252,156.710377 631.242066,156.226439 630.578804,155.253187 L629.310803,153.403471 C628.354925,152.005429 629.081587,149.978269 630.651958,149.687906 L630.651958,149.687906 Z M627.940386,167.362379 C629.320557,166.448274 629.827757,164.512525 629.101095,162.931662 C620.795687,144.950696 603.160717,138.105669 587.58381,145.364732 C572.006903,152.623794 564.09165,171.180108 569.953717,190.128948 C570.465794,191.790467 572.050796,192.736834 573.596782,192.317421 C580.287926,190.510721 589.75892,187.348996 601.565962,181.842863 C613.056003,176.492666 621.66378,171.534995 627.940386,167.362379 L627.940386,167.362379 Z M607.798675,198.103163 C600.093129,201.689677 592.82163,204.657827 586.125609,206.964595 C584.9015,207.384008 584.760069,209.239102 585.911024,209.86822 C593.992093,214.245166 603.687425,214.885039 612.63171,210.717799 C621.522349,206.577445 627.837971,198.544083 630.651958,189.177205 C631.051866,187.832934 629.75948,186.644599 628.628033,187.30598 C622.566012,190.854855 615.61639,194.4575 607.798675,198.103163 L607.798675,198.103163 Z" id="footer_collections" transform="translate(600.000000, 178.015625) rotate(32.000000) translate(-600.000000, -178.015625) "></path>
        </g>
    </g>
</svg>