<?xml version="1.0" encoding="UTF-8" standalone="no"?>
<svg width="68px" height="70px" viewBox="0 0 68 70" version="1.1" xmlns="http://www.w3.org/2000/svg" xmlns:xlink="http://www.w3.org/1999/xlink">
    <defs></defs>
    <g id="Page-1" stroke="none" stroke-width="1" fill="none" fill-rule="evenodd">
        <g id="logos_buckets" transform="translate(-234.000000, -41.000000)" fill="#EDEBF5">
            <path d="M273.157431,41.5078125 C259.380694,41.5078125 244.739232,45.774602 244.739232,53.6870404 L244.739232,69.2845717 L248.656884,65.5313396 C249.462743,64.751869 250.749681,64.7823171 251.525092,65.5922358 C252.302533,66.4021544 252.274115,67.6850331 251.464196,68.4604439 L236.246251,83.0430395 C234.648742,84.5796521 234.163603,86.7942417 234.979611,88.8302027 C235.815918,90.9108208 237.83767,92.2545956 240.131424,92.2545956 L244.739232,92.2545956 L244.739232,98.3442096 C244.739232,106.254618 259.380694,110.523438 273.157431,110.523438 C286.934167,110.523438 301.575629,106.254618 301.575629,98.3442096 L301.575629,53.6870404 C301.575629,45.774602 286.934167,41.5078125 273.157431,41.5078125 L273.157431,41.5078125 Z M244.739232,88.1948529 L240.131424,88.1948529 C239.175355,88.1948529 238.830277,87.5229655 238.747052,87.3159187 C238.633379,87.0337665 238.523766,86.4816415 239.059652,85.9660542 L244.739232,80.5239692 L244.739232,88.1948529 Z M272.942601,56.3488528 C284.396734,56.3488528 297.332302,54.7842258 296.060278,51.2638148 C294.788254,47.7434039 284.396734,44.4185714 272.9426,44.4185714 C261.488467,44.4185714 251.244429,47.5478255 250.230496,51.2638148 C249.216563,54.9798041 261.488467,56.3488528 272.942601,56.3488528 Z" id="footer_buckets"></path>
        </g>
    </g>
</svg>