<?xml version="1.0" encoding="UTF-8" standalone="no"?>
<svg width="75px" height="85px" viewBox="0 0 75 85" version="1.1" xmlns="http://www.w3.org/2000/svg" xmlns:xlink="http://www.w3.org/1999/xlink">
    <defs>
        <filter x="-50%" y="-50%" width="200%" height="200%" filterUnits="objectBoundingBox" id="filter-1">
            <feOffset dx="2" dy="2" in="SourceAlpha" result="shadowOffsetOuter1"></feOffset>
            <feGaussianBlur stdDeviation="0" in="shadowOffsetOuter1" result="shadowBlurOuter1"></feGaussianBlur>
            <feColorMatrix values="0 0 0 0 0.822890094   0 0 0 0 0.810426932   0 0 0 0 0.781346222  0 0 0 0.7 0" in="shadowBlurOuter1" type="matrix" result="shadowMatrixOuter1"></feColorMatrix>
            <feMerge>
                <feMergeNode in="shadowMatrixOuter1"></feMergeNode>
                <feMergeNode in="SourceGraphic"></feMergeNode>
            </feMerge>
        </filter>
        <filter x="-50%" y="-50%" width="200%" height="200%" filterUnits="objectBoundingBox" id="filter-2">
            <feMorphology radius="1" in="SourceAlpha" operator="dilate" result="shadowSpreadInner1"></feMorphology>
            <feOffset dx="0" dy="0" in="shadowSpreadInner1" result="shadowOffsetInner1"></feOffset>
            <feGaussianBlur stdDeviation="0.5" in="shadowOffsetInner1" result="shadowBlurInner1"></feGaussianBlur>
            <feComposite in="shadowBlurInner1" in2="SourceAlpha" operator="arithmetic" k2="-1" k3="1" result="shadowInnerInner1"></feComposite>
            <feColorMatrix values="0 0 0 0 0.775271046   0 0 0 0 0.504263497   0 0 0 0 0.05874795  0 0 0 0.7 0" in="shadowInnerInner1" type="matrix" result="shadowMatrixInner1"></feColorMatrix>
            <feMerge>
                <feMergeNode in="SourceGraphic"></feMergeNode>
                <feMergeNode in="shadowMatrixInner1"></feMergeNode>
            </feMerge>
        </filter>
        <filter x="-50%" y="-50%" width="200%" height="200%" filterUnits="objectBoundingBox" id="filter-3">
            <feOffset dx="0" dy="0" in="SourceAlpha" result="shadowOffsetOuter1"></feOffset>
            <feGaussianBlur stdDeviation="0" in="shadowOffsetOuter1" result="shadowBlurOuter1"></feGaussianBlur>
            <feColorMatrix values="0 0 0 0 0.961710989   0 0 0 0 0.65036732   0 0 0 0 0.138542295  0 0 0 0.273913043 0" in="shadowBlurOuter1" type="matrix" result="shadowMatrixOuter1"></feColorMatrix>
            <feMerge>
                <feMergeNode in="shadowMatrixOuter1"></feMergeNode>
                <feMergeNode in="SourceGraphic"></feMergeNode>
            </feMerge>
        </filter>
    </defs>
    <g id="Page-1" stroke="none" stroke-width="1" fill="none" fill-rule="evenodd">
        <g id="logos_linklist" transform="translate(-61.000000, -156.000000)">
            <g id="logo-copy" transform="translate(58.700000, 155.950000)">
                <g id="bg">
                    <path d="M38.457883,0.129807065 C43.1613868,0.129807065 69.5529452,15.5536649 72.5297644,20.7571495 C75.5065837,25.9606341 74.9484721,56.8942264 72.5297644,62.0118345 C70.1110567,67.1294425 43.4596529,82.6391769 38.457883,82.6391769 C33.4561131,82.6391769 6.71731138,66.0119868 4.38600165,62.0118345 C2.05469191,58.0116822 2.73211014,25.6001646 4.38600165,20.7571495 C6.03989315,15.9141345 33.7543793,0.129807065 38.457883,0.129807065 Z" id="base" fill="#F5F2EB" filter="url(#filter-1)"></path>
                    <g id="inner" transform="translate(7.913046, 5.847102)">
                        <path d="M30.7670501,0.0047083806 C34.8181804,0.0047083806 57.5492436,13.2892853 60.1131796,17.7710494 C62.6771156,22.2528134 62.1964139,48.8959329 60.1131796,53.3037314 C58.0299454,57.7115299 35.0750772,71.0700724 30.7670501,71.0700724 C26.4590231,71.0700724 3.42887893,56.7490647 1.42092062,53.3037314 C-0.587037686,49.8583981 -0.00357700881,21.9423408 1.42092062,17.7710494 C2.84541826,13.599758 26.7159199,0.0047083806 30.7670501,0.0047083806 Z" id="inner_bg" fill="#F6A623" filter="url(#filter-2)"></path>
                        <path d="M30.6062947,5.67475604 C34.010975,5.67475604 53.11478,16.8394765 55.2695817,20.6060732 C57.4243834,24.3726699 57.0203886,46.7642736 55.2695817,50.4687076 C53.5187749,54.1731416 34.2268781,65.4000247 30.6062947,65.4000247 C26.9857114,65.4000247 7.63055058,53.3642596 5.94300769,50.4687076 C4.2554648,47.5731556 4.74582106,24.1117402 5.94300769,20.6060732 C7.14019433,17.1004062 27.2016144,5.67475604 30.6062947,5.67475604 Z" id="inner_front" fill="#F5DA9D"></path>
                    </g>
                </g>
                <path d="M45.384357,38.7757124 C45.3648547,38.8648768 44.1317118,50.5357133 44.1094157,50.7478927 C43.9582637,52.2184635 45.0251863,53.5400647 46.4950863,53.694591 C47.963316,53.8489417 49.2849811,52.7784458 49.4394738,51.3082262 C49.593791,49.8396772 48.5235277,48.5177249 47.055298,48.3633742 L46.0597748,48.2587177 L46.2686911,46.2705798 L47.2642143,46.3752363 C48.506948,46.5058813 49.623604,47.1131285 50.4113536,48.0861298 C51.1976084,49.0572847 51.5594665,50.2743596 51.4288499,51.5173635 C51.1590143,54.0852357 48.8516382,55.9541182 46.2859945,55.6843996 C43.7337134,55.4160857 41.8641837,53.1182322 42.1285568,50.4737735 L43.3799478,38.5649947 L45.384357,38.7757124 L45.384357,38.7757124 Z M29.473888,49.2093023 C29.4161288,49.758964 28.9216029,50.1579817 28.3737311,50.1003855 C27.8275296,50.042965 27.428423,49.5500023 27.4861822,49.0003406 C27.5437659,48.4523497 28.0366214,48.0531564 28.5828229,48.1105769 L28.5844933,48.1107525 C29.1323651,48.1683487 29.5314717,48.6613114 29.473888,49.2093023 L29.473888,49.2093023 L29.473888,49.2093023 Z M40.9403033,45.710422 L40.731387,47.6985599 L28.7583828,46.4398728 C27.2901531,46.2855221 25.9701584,47.3561936 25.8158413,48.8247425 C25.6613485,50.2949622 26.7299414,51.6167389 28.1981712,51.7710896 C29.6680712,51.9256159 30.9897363,50.85512 31.144229,49.3849004 L31.2486871,48.3908315 L33.2380633,48.5999688 L33.1336051,49.5940377 C32.8637695,52.1619099 30.5563934,54.0307925 27.9890793,53.7608982 C25.4234356,53.4911796 23.5566296,51.1834774 23.8264651,48.6156052 C24.0959496,46.0510744 26.4016554,44.1820163 28.9672991,44.451735 L40.9403033,45.710422 L40.9403033,45.710422 Z M29.9121626,35.4600055 C27.3465188,35.1902868 25.4797128,32.8825847 25.7493729,30.3163832 C26.0190329,27.7501817 28.3247387,25.8811236 30.8903824,26.1508422 C33.3674981,26.4112542 35.1941054,28.5711517 35.0760751,31.0282957 L34.2532258,38.8588859 L34.2615775,38.8597639 L33.7980994,43.2704227 L31.8087233,43.0612854 L33.0671367,31.0856784 C33.2214539,29.6171295 32.1510151,28.2968478 30.681115,28.1423215 C29.2128853,27.9879708 27.8930661,29.0569716 27.738749,30.5255205 C27.5842562,31.9957401 28.6528492,33.3175169 30.1210789,33.4718676 L31.1166021,33.576524 L30.9076858,35.5646619 L29.9121626,35.4600055 L29.9121626,35.4600055 Z M30.2966388,31.8011635 C29.7504373,31.7437429 29.3513307,31.2507802 29.40909,30.7011186 C29.4666736,30.1531276 29.9593536,29.755605 30.5055551,29.8130256 C31.0534269,29.8706218 31.4543794,30.3620894 31.3967957,30.9100803 C31.3390365,31.4597419 30.8445106,31.8587597 30.2966388,31.8011635 L30.2966388,31.8011635 L30.2966388,31.8011635 Z M40.7140836,38.2847401 C41.2619555,38.3423363 41.6627324,38.8354746 41.6051487,39.3834655 L41.2203214,43.0456489 C41.1627377,43.5936399 40.6682119,43.9926576 40.12034,43.9350614 L36.4639636,43.5506772 C35.9160917,43.4930811 35.5153149,42.9999428 35.5728985,42.4519518 L35.9577258,38.7897684 C36.0153095,38.2417775 36.5098354,37.8427598 37.0577072,37.9003559 L40.7140836,38.2847401 L40.7140836,38.2847401 Z M47.7026644,32.6242687 C47.7602481,32.0762778 48.2545984,31.6789308 48.8024702,31.7365269 C49.3503421,31.7941231 49.7496242,32.2854151 49.6920405,32.833406 C49.6342813,33.3830677 49.1414258,33.782261 48.5935539,33.7246648 C48.0456821,33.6670687 47.6449052,33.1739304 47.7026644,32.6242687 L47.7026644,32.6242687 L47.7026644,32.6242687 Z M48.2090777,37.3835068 L36.2293922,36.1241174 L36.4383085,34.1359795 L48.417994,35.3953689 C49.8862238,35.5497196 51.2078888,34.4792237 51.3623815,33.0090041 C51.5166987,31.5404552 50.4462599,30.2201736 48.9780302,30.0658228 C47.5081301,29.9112965 46.1866406,30.9801217 46.0323234,32.4486706 C45.9952803,32.8011892 46.0301471,33.1443759 46.1231196,33.4649553 L43.939984,33.2354486 L44.0461977,32.2246726 C44.3235072,29.6660319 46.6266648,27.8051517 49.1872976,28.0743436 C51.7529413,28.3440622 53.6214177,30.6519399 53.3517576,33.2181414 C53.0820976,35.7843429 50.7747215,37.6532255 48.2090777,37.3835068 L48.2090777,37.3835068 L48.2090777,37.3835068 Z M46.8797381,50.0340783 C47.4276099,50.0916744 47.8267165,50.5846371 47.7691328,51.1326281 C47.7113736,51.6822897 47.2185181,52.081483 46.6706462,52.0238869 C46.1227744,51.9662907 45.7219975,51.4731524 45.7797567,50.9234908 C45.8373404,50.3754998 46.3318662,49.9764821 46.8797381,50.0340783 L46.8797381,50.0340783 L46.8797381,50.0340783 Z M30.6276678,38.229435 L30.2428404,41.8916184 C30.1852568,42.4396093 29.6907309,42.838627 29.1428591,42.7810309 C25.6568574,42.4145577 22.5225177,44.9532477 22.1561242,48.4400072 C21.7895551,51.9284373 24.3275178,55.0651291 27.8135194,55.4316023 C31.3011914,55.7982511 34.437377,53.258066 34.8039461,49.7696358 C34.8613542,49.2233156 35.3542097,48.8241222 35.9022571,48.8800477 L39.5601283,49.2662782 C40.1046595,49.3235232 40.4975211,49.7955594 40.4476822,50.3984177 C40.1032639,53.8689066 42.6428067,56.990562 46.1104346,57.3551037 C49.5981065,57.7217524 52.7326218,55.1813917 53.0991909,51.6929615 C53.276682,50.0038797 52.7855251,48.3458544 51.7164055,47.0290898 C50.6478126,45.707313 49.1284889,44.8820618 47.4397742,44.7045322 C46.8919024,44.646936 46.4911255,44.1537977 46.5487091,43.6058068 L46.9335365,39.9436234 C46.9911201,39.3956325 47.485646,38.9966147 48.0335178,39.0542109 C51.5211898,39.4208597 54.6555295,36.8821697 55.0220986,33.3937395 C55.3886677,29.9053093 52.8505295,26.7702882 49.3628575,26.4036394 C45.8751855,26.0369907 42.7408458,28.5756807 42.3742767,32.0641109 C42.3165175,32.6137725 41.8219916,33.0127902 41.2741197,32.9551941 L37.6177433,32.5708099 C37.0698715,32.5132137 36.6690946,32.0200754 36.7268538,31.4704138 C37.0934229,27.9819836 34.5536143,24.8467869 31.0659423,24.4801381 C27.5799407,24.1136649 24.445601,26.652355 24.0790319,30.1407851 C23.7124628,33.6292153 26.250601,36.7642364 29.7366027,37.1307096 C30.2844745,37.1883057 30.6852514,37.681444 30.6276678,38.229435 L30.6276678,38.229435 L30.6276678,38.229435 Z" id="mark" fill="#F6A623" filter="url(#filter-3)"></path>
            </g>
        </g>
    </g>
</svg>