<?xml version="1.0" encoding="UTF-8" standalone="no"?>
<svg width="74px" height="86px" viewBox="0 0 74 86" version="1.1" xmlns="http://www.w3.org/2000/svg" xmlns:xlink="http://www.w3.org/1999/xlink">
    <defs>
        <filter x="-50%" y="-50%" width="200%" height="200%" filterUnits="objectBoundingBox" id="filter-1">
            <feOffset dx="2" dy="2" in="SourceAlpha" result="shadowOffsetOuter1"></feOffset>
            <feGaussianBlur stdDeviation="0" in="shadowOffsetOuter1" result="shadowBlurOuter1"></feGaussianBlur>
            <feColorMatrix values="0 0 0 0 0.822890094   0 0 0 0 0.810426932   0 0 0 0 0.781346222  0 0 0 0.7 0" in="shadowBlurOuter1" type="matrix" result="shadowMatrixOuter1"></feColorMatrix>
            <feMerge>
                <feMergeNode in="shadowMatrixOuter1"></feMergeNode>
                <feMergeNode in="SourceGraphic"></feMergeNode>
            </feMerge>
        </filter>
        <filter x="-50%" y="-50%" width="200%" height="200%" filterUnits="objectBoundingBox" id="filter-2">
            <feMorphology radius="1" in="SourceAlpha" operator="dilate" result="shadowSpreadInner1"></feMorphology>
            <feOffset dx="0" dy="0" in="shadowSpreadInner1" result="shadowOffsetInner1"></feOffset>
            <feGaussianBlur stdDeviation="0.5" in="shadowOffsetInner1" result="shadowBlurInner1"></feGaussianBlur>
            <feComposite in="shadowBlurInner1" in2="SourceAlpha" operator="arithmetic" k2="-1" k3="1" result="shadowInnerInner1"></feComposite>
            <feColorMatrix values="0 0 0 0 0.301960784   0 0 0 0 0.188235294   0 0 0 0 0.670588235  0 0 0 0.42 0" in="shadowInnerInner1" type="matrix" result="shadowMatrixInner1"></feColorMatrix>
            <feMerge>
                <feMergeNode in="SourceGraphic"></feMergeNode>
                <feMergeNode in="shadowMatrixInner1"></feMergeNode>
            </feMerge>
        </filter>
        <filter x="-50%" y="-50%" width="200%" height="200%" filterUnits="objectBoundingBox" id="filter-3">
            <feOffset dx="0" dy="0" in="SourceAlpha" result="shadowOffsetOuter1"></feOffset>
            <feGaussianBlur stdDeviation="0" in="shadowOffsetOuter1" result="shadowBlurOuter1"></feGaussianBlur>
            <feColorMatrix values="0 0 0 0 0.392156863   0 0 0 0 0.239215686   0 0 0 0 0.729411765  0 0 0 0.273 0" in="shadowBlurOuter1" type="matrix" result="shadowMatrixOuter1"></feColorMatrix>
            <feMerge>
                <feMergeNode in="shadowMatrixOuter1"></feMergeNode>
                <feMergeNode in="SourceGraphic"></feMergeNode>
            </feMerge>
        </filter>
    </defs>
    <g id="Page-1" stroke="none" stroke-width="1" fill="none" fill-rule="evenodd">
        <g id="logos_collections" transform="translate(-167.000000, -165.000000)">
            <g id="logo_collections" transform="translate(164.200000, 165.615625)">
                <g id="bg">
                    <path d="M38.457883,0.129807065 C43.1613868,0.129807065 69.5529452,15.5536649 72.5297644,20.7571495 C75.5065837,25.9606341 74.9484721,56.8942264 72.5297644,62.0118345 C70.1110567,67.1294425 43.4596529,82.6391769 38.457883,82.6391769 C33.4561131,82.6391769 6.71731138,66.0119868 4.38600165,62.0118345 C2.05469191,58.0116822 2.73211014,25.6001646 4.38600165,20.7571495 C6.03989315,15.9141345 33.7543793,0.129807065 38.457883,0.129807065 Z" id="base" fill="#F5F2EB" filter="url(#filter-1)"></path>
                    <g id="inner" transform="translate(7.913046, 5.847102)">
                        <path d="M30.7670501,0.0047083806 C34.8181804,0.0047083806 57.5492436,13.2892853 60.1131796,17.7710494 C62.6771156,22.2528134 62.1964139,48.8959329 60.1131796,53.3037314 C58.0299454,57.7115299 35.0750772,71.0700724 30.7670501,71.0700724 C26.4590231,71.0700724 3.42887893,56.7490647 1.42092062,53.3037314 C-0.587037686,49.8583981 -0.00357700881,21.9423408 1.42092062,17.7710494 C2.84541826,13.599758 26.7159199,0.0047083806 30.7670501,0.0047083806 Z" id="inner_bg" fill="#9F6FE4" filter="url(#filter-2)"></path>
                        <path d="M30.6062947,5.67475604 C34.010975,5.67475604 53.11478,16.8394765 55.2695817,20.6060732 C57.4243834,24.3726699 57.0203886,46.7642736 55.2695817,50.4687076 C53.5187749,54.1731416 34.2268781,65.4000247 30.6062947,65.4000247 C26.9857114,65.4000247 7.63055058,53.3642596 5.94300769,50.4687076 C4.2554648,47.5731556 4.74582106,24.1117402 5.94300769,20.6060732 C7.14019433,17.1004062 27.2016144,5.67475604 30.6062947,5.67475604 Z" id="inner_front" fill="#DCC8F4"></path>
                    </g>
                </g>
                <path d="M50.0220035,30.351653 C54.4750338,29.5253451 57.6238065,29.8723142 58.282302,31.5891092 C59.5065215,34.7860382 54.4404719,40.2011627 40.7903331,46.5609256 C28.0842804,52.4814617 20.0859249,53.1533382 18.8598863,49.9564092 C18.1777431,48.1754349 20.0022486,45.4518279 23.7986025,42.4333974 C24.2788313,42.052333 24.9555173,42.3692181 25.0428316,43.0150218 L25.1410602,43.7470664 C25.2029078,44.202338 25.0264602,44.655604 24.6881172,44.9263602 C22.2051162,46.9139115 20.9517919,48.4321519 21.1300586,48.8974515 C21.4774968,49.7999722 28.6409092,49.4309415 39.882628,44.19231 C51.95929,38.5665974 56.4159584,33.7030133 56.1067202,32.8967615 C55.9320915,32.4414899 54.0057193,32.3973667 51.0606801,32.9007727 C50.6532132,32.9709687 50.2421083,32.7904646 49.9947177,32.4274507 L49.5217652,31.7375237 C49.1652317,31.2160673 49.4362699,30.4599555 50.0220035,30.351653 L50.0220035,30.351653 Z M49.0106126,36.9440656 C49.5254033,36.6031133 49.7145843,35.8810967 49.4435461,35.2914499 C46.3457068,28.5847179 39.768028,26.031587 33.9579875,28.7391492 C28.1479471,31.4467115 25.1956317,38.3680428 27.3821278,45.435783 C27.5731278,46.055514 28.1643186,46.4084998 28.7409569,46.2520629 C31.2366912,45.5781808 34.7692831,44.398887 39.1731991,42.3451509 C43.458877,40.3495772 46.6694974,38.5004125 49.0106126,36.9440656 L49.0106126,36.9440656 Z M41.4979429,48.4100903 C38.6238465,49.7478266 35.9116455,50.8549187 33.4140921,51.7153218 C32.9575109,51.8717588 32.9047585,52.5636913 33.334054,52.7983467 C36.3482171,54.4309065 39.9644852,54.6695731 43.3006198,53.1152318 C46.616745,51.5709185 48.9724126,48.5745496 50.0220035,45.0807915 C50.1711654,44.5793911 49.6891176,44.1361532 49.2670984,44.3828422 C47.0060213,45.7065393 44.4138774,47.0502924 41.4979429,48.4100903 L41.4979429,48.4100903 Z" id="mark" fill="#643DBA" filter="url(#filter-3)" transform="translate(38.589110, 40.917627) rotate(32.000000) translate(-38.589110, -40.917627) "></path>
            </g>
        </g>
    </g>
</svg>