<?xml version="1.0" encoding="UTF-8" standalone="no"?>
<svg width="69px" height="69px" viewBox="0 0 69 69" version="1.1" xmlns="http://www.w3.org/2000/svg" xmlns:xlink="http://www.w3.org/1999/xlink">
    <defs></defs>
    <g id="Page-1" stroke="none" stroke-width="1" fill="none" fill-rule="evenodd">
        <g id="logo_footer" fill="#F5F2EB">
            <path d="M48.4991206,27.9267934 C48.4772625,28.1256116 48.4958275,53.8504362 48.496433,54.3180936 C48.5080006,57.5585643 51.1431696,60.1984815 54.3867893,60.2026227 C57.6267231,60.2067593 60.2624363,57.5735717 60.2582405,54.3331105 C60.2540495,51.0963316 57.6115087,48.456405 54.3715749,48.4522684 L52.1747597,48.4494637 L52.1690858,44.0674763 L54.365901,44.0702811 C57.1082341,44.0737824 59.6860829,45.1449511 61.6310815,47.0880256 C63.5723894,49.027413 64.6446376,51.5990527 64.6481849,54.3387153 C64.6555132,59.9984755 60.0540587,64.5955208 54.3924679,64.5882924 C48.7603645,64.5811017 44.1470188,59.9943853 44.1099885,54.1688821 L44.0760028,27.9211462 L48.4991206,27.9267934 L48.4991206,27.9267934 Z M16.200301,54.2768596 C16.2018696,55.4883502 15.215313,56.4702744 14.0063275,56.4687309 C12.8010279,56.467192 11.8156111,55.4827501 11.8140425,54.2712595 C11.8124786,53.0634512 12.7953493,52.0815223 14.0006489,52.0830612 L14.0043348,52.0830659 C15.2133203,52.0846094 16.1987371,53.0690513 16.200301,54.2768596 L16.200301,54.2768596 L16.200301,54.2768596 Z M40.4109643,44.0524642 L40.4166381,48.4344515 L13.9958809,48.4007189 C10.7559471,48.3965823 8.12391993,51.0297746 8.12811094,54.2665535 C8.13230671,57.5070147 10.7711616,60.1469366 14.0110954,60.1510732 C17.2547151,60.1552144 19.8904283,57.5220269 19.8862325,54.2815656 L19.8833956,52.0905719 L24.27334,52.0961768 L24.2761769,54.2871705 C24.2835052,59.9469306 19.6820508,64.543976 14.016774,64.5367428 C8.35518318,64.5295144 3.74549479,59.9207087 3.73816649,54.2609486 C3.73084773,48.6085532 8.32861629,44.0115031 13.9902071,44.0187315 L40.4109643,44.0524642 L40.4109643,44.0524642 Z M13.9645461,24.2003652 C8.30295532,24.1931368 3.69326693,19.5843311 3.6859434,13.9282533 C3.67861987,8.27217554 8.27638843,3.67512545 13.9379793,3.68235388 C19.4042157,3.68933288 23.8918631,7.98498417 24.2047661,13.3689592 L24.2271134,30.6280976 L24.245543,30.6281211 L24.2581303,40.3495048 L19.8681859,40.3439 L19.8340094,13.9488703 C19.8298184,10.7120914 17.1872824,8.07584719 13.9436626,8.07170591 C10.7037288,8.06756933 8.07169684,10.6970793 8.07588785,13.9338582 C8.08008362,17.1743194 10.7189385,19.8142413 13.9588723,19.8183779 L16.1556875,19.8211826 L16.1613613,24.20317 L13.9645461,24.2003652 L13.9645461,24.2003652 Z M13.9541044,16.1360356 C12.7488048,16.1344967 11.763388,15.1500548 11.7618194,13.9385642 C11.7602555,12.7307559 12.7431309,11.7525094 13.9484305,11.7540482 C15.1574161,11.7555918 16.146514,12.736356 16.1480779,13.9441643 C16.1496465,15.1556549 15.1630899,16.1375791 13.9541044,16.1360356 L13.9541044,16.1360356 L13.9541044,16.1360356 Z M38.193256,27.9136354 C39.4022416,27.915179 40.3913443,28.8996256 40.3929081,30.1074338 L40.4033594,38.1791282 C40.4049233,39.3869365 39.4183667,40.3688606 38.2093812,40.3673171 L30.1408771,40.3570156 C28.9318915,40.3554721 27.9427888,39.3710254 27.941225,38.1632172 L27.9307737,30.0915228 C27.9292098,28.8837146 28.9157664,27.9017904 30.1247519,27.9033339 L38.193256,27.9136354 L38.193256,27.9136354 Z M52.1301414,13.9901043 C52.1285775,12.7822961 53.1151389,11.8040542 54.3241245,11.8055978 C55.53311,11.8071414 56.518522,12.7879009 56.5200859,13.9957092 C56.5216545,15.2071998 55.5387838,16.1891287 54.3297983,16.1875851 C53.1208128,16.1860416 52.1317101,15.201595 52.1301414,13.9901043 L52.1301414,13.9901043 L52.1301414,13.9901043 Z M54.3402401,24.2519148 L27.9047392,24.2181633 L27.8990653,19.836176 L54.3345662,19.8699274 C57.5745,19.874064 60.2102132,17.2408764 60.2060174,14.0004152 C60.2018264,10.7636363 57.5592904,8.12739206 54.3193565,8.12325548 C51.0757368,8.1191142 48.4400189,10.7486194 48.4442099,13.9853983 C48.4452159,14.7623726 48.6009834,15.502721 48.8783056,16.180625 L44.0607931,16.1744742 L44.0579085,13.9466571 C44.0690337,8.30533223 48.6631401,3.72668915 54.3136732,3.73390345 C59.975264,3.74113188 64.5886383,8.34994227 64.5959618,14.0060201 C64.6032854,19.6620978 60.0018309,24.2591432 54.3402401,24.2519148 L54.3402401,24.2519148 L54.3402401,24.2519148 Z M54.3763428,52.1346107 C55.5853283,52.1361543 56.5707451,53.1205962 56.572309,54.3284045 C56.5738776,55.5398951 55.5910069,56.521824 54.3820214,56.5202804 C53.1730359,56.5187369 52.1839332,55.5342903 52.1823645,54.3227996 C52.1808006,53.1149914 53.1673573,52.1330672 54.3763428,52.1346107 L54.3763428,52.1346107 L54.3763428,52.1346107 Z M16.1689662,30.076506 L16.1794175,38.1482003 C16.1809813,39.3560086 15.1944247,40.3379328 13.9854392,40.3363892 C6.2929001,40.3265678 0.0422843064,46.5711942 0.0522349677,54.2562426 C0.062190397,61.9449733 6.32900283,68.2092637 14.0215419,68.2190852 C21.7177669,68.2289113 27.9720639,61.9806072 27.9621085,54.2918765 C27.9605494,53.0877505 28.94342,52.1058217 30.1524008,52.1036829 L38.2245956,52.1176714 C39.4262093,52.1192055 40.3931392,53.0594358 40.4243431,54.3851167 C40.4784725,62.0297158 46.745242,68.2608651 54.3972358,68.2706347 C62.0934609,68.2804609 68.3440719,62.0321521 68.3341165,54.3434213 C68.3292961,50.6205733 66.8725048,47.1168116 64.2336642,44.4879367 C61.5948093,41.8480148 58.0876099,40.3926966 54.3611331,40.3879388 C53.1521476,40.3863952 52.1630449,39.4019486 52.161481,38.1941403 L52.1510297,30.122446 C52.1494658,28.9146377 53.1360224,27.9327135 54.345008,27.9342571 C62.041233,27.9440832 68.2918488,21.6994568 68.2818934,14.0107261 C68.2719379,6.32199532 62.0051303,0.0613872834 54.3089052,0.0515611455 C46.6126802,0.0417350076 40.3620644,6.28636145 40.3720199,13.9750922 C40.3735885,15.1865828 39.3870319,16.168507 38.1780464,16.1669634 L30.1095423,16.156662 C28.9005567,16.1551184 27.911454,15.1706718 27.9098854,13.9591812 C27.89993,6.27045045 21.6294364,0.0098377073 13.9332113,1.15693606e-05 C6.24067224,-0.00980986257 -0.00994355362,6.23481658 1.18756094e-05,13.9235473 C0.00996730484,21.6122781 6.27677497,27.8728861 13.9693141,27.8827075 C15.1782996,27.8842511 16.1674023,28.8686977 16.1689662,30.076506 L16.1689662,30.076506 L16.1689662,30.076506 Z" id="mark-2"></path>
        </g>
    </g>
</svg>