<?xml version="1.0" encoding="UTF-8" standalone="no"?>
<svg width="291px" height="252px" viewBox="0 0 291 252" version="1.1" xmlns="http://www.w3.org/2000/svg" xmlns:xlink="http://www.w3.org/1999/xlink">
    <!-- Generator: Sketch 39.1 (31720) - http://www.bohemiancoding.com/sketch -->
    <title>Group</title>
    <desc>Created with Sketch.</desc>
    <defs></defs>
    <g id="Page-1" stroke="none" stroke-width="1" fill="none" fill-rule="evenodd">
        <g id="Group">
            <g id="Group-8" transform="translate(96.000000, 0.000000)">
                <path d="M100.476,1.219 C99,0.481 97.793,1.227 97.793,2.877 L97.793,205.793 L186.645,250.219 C191.072,252.433 194.694,250.194 194.694,245.244 L194.694,49.916 C194.694,48.943 194.144,48.053 193.274,47.618 L100.476,1.219" id="Fill-6" fill="#35FD8E"></path>
                <path d="M0.902,157.407 L96.231,2.497 C97.096,1.092 99.011,0.546 100.487,1.284 L192.571,47.326 C193.718,47.899 194.127,49.333 193.455,50.425 L97.803,205.858 L0.902,157.407" id="Fill-7" fill="#13E472"></path>
            </g>
            <path d="M10.733,5.308 C4.83,2.357 2.83,4.541 6.289,10.162 L96.902,157.407 L193.803,205.858 L97.528,49.411 C97.119,48.745 96.531,48.208 95.833,47.858 L10.733,5.308" id="Fill-9" fill="#18C868"></path>
            <path d="M96.902,245.309 C96.902,250.259 93.279,252.498 88.852,250.284 L5.367,208.541 C2.415,207.065 0,203.158 0,199.858 L0,5.942 C0,2.642 2.415,1.149 5.367,2.625 L95.707,47.796 C96.439,48.162 96.902,48.91 96.902,49.729 L96.902,245.309" id="Fill-10" fill="#01AB6D"></path>
        </g>
    </g>
</svg>