<?xml version="1.0" encoding="UTF-8" standalone="no"?>
<svg width="70px" height="70px" viewBox="0 0 70 70" version="1.1" xmlns="http://www.w3.org/2000/svg" xmlns:xlink="http://www.w3.org/1999/xlink">
    <defs></defs>
    <g id="Page-1" stroke="none" stroke-width="1" fill="none" fill-rule="evenodd">
        <g id="Artboard-1" transform="translate(-1.000000, -1.000000)" fill="#E1796D">
            <path d="M56.0833228,34.7360764 L67.1691335,23.6537963 C72.1259736,18.6969561 72.1259736,10.6615087 67.1691335,5.7046685 L66.2970968,4.8326318 C61.3402566,-0.124208362 53.3048092,-0.124208362 48.347969,4.8326318 L37.2621584,15.9149119 C33.6433826,19.5372182 32.7819375,24.8471096 34.6354568,29.2955559 C35.0908929,30.397076 34.7731468,31.6715911 33.9293542,32.5153837 L32.5136185,33.9275889 C31.6698259,34.7713815 30.3988412,35.0926582 29.2973212,34.6336915 C24.8453444,32.7801722 19.5354529,33.6416174 15.9166772,37.2639236 L4.83086654,48.3462037 C-0.125973619,53.3030439 -0.125973619,61.3384913 4.83086654,66.2953315 L5.70290324,67.1673682 C10.6597434,72.1242084 18.6951908,72.1242084 23.652031,67.1673682 L34.7378416,56.0850881 C38.3601479,52.4592513 39.2215931,47.1422988 37.3610127,42.6867915 C36.8985155,41.5852715 37.2197922,40.3107563 38.0635848,39.4669637 L39.4651984,38.0653501 C40.3125216,37.2215575 41.5870367,36.9002808 42.6885568,37.362778 C47.1405336,39.2198278 52.4574861,38.3619132 56.0833228,34.7360764 L56.0833228,34.7360764 Z M48.6833677,29.8851516 C48.362091,29.5638749 48.2491146,29.04842 48.4397623,28.6388805 C49.1070293,27.2019618 48.8951985,25.4684799 47.7089462,24.2786971 C46.5191633,23.0924447 44.7856814,22.8806139 43.3487627,23.5478809 C42.9356927,23.7385286 42.4343598,23.6361437 42.1130831,23.314867 C41.6894216,22.887675 41.6894216,22.1956944 42.1130831,21.7720329 L53.5131094,10.3720066 C55.58199,8.30312602 58.9359773,8.30312602 61.0013274,10.3720066 L61.6262281,10.9969074 C63.6951087,13.0622575 63.6951087,16.4162447 61.6262281,18.4851253 L50.2262019,29.8851516 C49.8025403,30.3088131 49.1105598,30.3088131 48.6833677,29.8851516 L48.6833677,29.8851516 Z M23.2989797,42.1007264 C23.6237869,42.4255335 23.7085192,42.9303969 23.50728,43.3469974 C22.8011774,44.7945077 23.0059471,46.5668252 24.2133826,47.7742606 C25.420818,48.9781656 27.189605,49.1864658 28.6406458,48.4803632 C29.0537158,48.279124 29.5479876,48.3497343 29.8727948,48.6745414 C30.2893953,49.0946725 30.3176394,49.7972446 29.9010389,50.2138451 L18.4868906,61.6279934 C16.41801,63.696874 13.0640227,63.696874 10.9951421,61.6279934 L10.3737719,61.0030926 C8.30489127,58.934212 8.30489127,55.5837553 10.3737719,53.5148747 L21.7879202,42.1007264 C22.2045207,41.6841258 22.8788487,41.6841258 23.2989797,42.1007264 L23.2989797,42.1007264 Z" id="permalink"></path>
        </g>
    </g>
</svg>