<?xml version="1.0" encoding="UTF-8" standalone="no"?>
<svg width="77px" height="75px" viewBox="0 0 77 75" version="1.1" xmlns="http://www.w3.org/2000/svg" xmlns:xlink="http://www.w3.org/1999/xlink">
    <defs></defs>
    <g id="Page-1" stroke="none" stroke-width="1" fill="none" fill-rule="evenodd">
        <g id="individual-buckets" transform="translate(-81.000000, -29.000000)">
            <g id="bucket_icon/better-css" transform="translate(81.500000, 29.000000)">
                <g id="css_base">
                    <ellipse id="Oval-6" stroke="#979797" fill="#D8D8D8" cx="38.0500031" cy="38.75" rx="34.25" ry="34.25"></ellipse>
                    <path d="M1.09966117,49.7407143 C0.145161166,48.5372143 -0.216481691,46.9720714 0.127375452,45.4721429 L6.69030402,16.7185714 C7.03416117,15.2245714 8.03608974,13.9617857 9.41744688,13.2977857 L35.9952326,0.498 C37.3765897,-0.166 38.9832326,-0.166 40.3645897,0.498 L66.9423755,13.2977857 C68.3237326,13.9617857 69.3256612,15.2245714 69.6695183,16.7185714 L76.2324469,45.4721429 C76.576304,46.9720714 76.2146612,48.5372143 75.2601612,49.7407143 L56.8697326,72.8028571 C55.9152326,74.0004286 54.4627326,74.7 52.9272326,74.7 L23.4325897,74.7 C21.8970897,74.7 20.4445897,74.0004286 19.4900897,72.8028571 L1.09966117,49.7407143 Z" fill="#643DBA"></path>
                </g>
                <g id="layout" transform="translate(20.050003, 22.250000)" fill="#E2DDED">
                    <path d="M0.5,1.00106304 C0.5,0.448191434 0.941686408,4.39420727e-07 1.50781275,4.3220832e-07 L34.4255206,1.28392226e-08 C34.9821202,5.74818576e-09 35.4333333,0.448636834 35.4333333,1.00106259 L35.4333333,12.0322707 C35.4333333,12.5851423 34.986071,13.0333333 34.4338429,13.0333334 C34.4338429,13.0333334 12.3089071,13.0333338 1.49338795,13.0333338 L1.49338795,13.0333338 C0.944754936,13.0333338 0.5,12.5846969 0.5,12.0322712 L0.5,1.00106304 Z" id="Rectangle-519"></path>
                    <rect id="Rectangle-519-Copy" x="0.566666667" y="14.6" width="14.8999996" height="20.3999996" rx="1"></rect>
                    <rect id="Rectangle-519-Copy-2" x="17" y="14.6" width="18.4333333" height="20.4" rx="1"></rect>
                </g>
            </g>
        </g>
    </g>
</svg>