<?xml version="1.0" encoding="UTF-8" standalone="no"?>
<svg width="77px" height="75px" viewBox="0 0 77 75" version="1.1" xmlns="http://www.w3.org/2000/svg" xmlns:xlink="http://www.w3.org/1999/xlink">
    <defs></defs>
    <g id="Page-1" stroke="none" stroke-width="1" fill="none" fill-rule="evenodd">
        <g id="individual-buckets" transform="translate(-221.000000, -29.000000)">
            <g id="bucket_icon/mobile-ui-inspiration" transform="translate(221.500000, 29.000000)">
                <g id="mobile_base">
                    <ellipse id="Oval-6" stroke="#979797" fill="#D8D8D8" cx="38.0500031" cy="38.75" rx="34.25" ry="34.25"></ellipse>
                    <path d="M1.09966117,49.7407143 C0.145161166,48.5372143 -0.216481691,46.9720714 0.127375452,45.4721429 L6.69030402,16.7185714 C7.03416117,15.2245714 8.03608974,13.9617857 9.41744688,13.2977857 L35.9952326,0.498 C37.3765897,-0.166 38.9832326,-0.166 40.3645897,0.498 L66.9423755,13.2977857 C68.3237326,13.9617857 69.3256612,15.2245714 69.6695183,16.7185714 L76.2324469,45.4721429 C76.576304,46.9720714 76.2146612,48.5372143 75.2601612,49.7407143 L56.8697326,72.8028571 C55.9152326,74.0004286 54.4627326,74.7 52.9272326,74.7 L23.4325897,74.7 C21.8970897,74.7 20.4445897,74.0004286 19.4900897,72.8028571 L1.09966117,49.7407143 Z" fill="#643DBA"></path>
                </g>
                <path d="M27.7323322,16.4375 L48.3676739,16.4375 C49.6009867,16.4375 50.6007843,17.4374236 50.6007843,18.6695527 L50.6007843,58.8304473 C50.6007843,60.063176 49.6012832,61.0625 48.3676739,61.0625 L27.7323322,61.0625 C26.4990194,61.0625 25.4992218,60.0625764 25.4992218,58.8304473 L25.4992218,18.6695527 C25.4992218,17.436824 26.4987229,16.4375 27.7323322,16.4375 Z M38.0013566,53.8182101 C39.3103239,53.8182101 40.3698137,54.8792788 40.3698137,56.1866672 C40.3698137,57.4956345 39.3103239,58.5551243 38.0013566,58.5551243 C36.6939683,58.5551243 35.6328995,57.4956345 35.6328995,56.1866672 C35.6328995,54.8792788 36.6939683,53.8182101 38.0013566,53.8182101 Z" id="iPhone" fill="#E2DDED"></path>
            </g>
        </g>
    </g>
</svg>