<?xml version="1.0" encoding="UTF-8" standalone="no"?>
<svg width="18px" height="15px" viewBox="0 0 18 15" version="1.1" xmlns="http://www.w3.org/2000/svg" xmlns:xlink="http://www.w3.org/1999/xlink">
    <defs></defs>
    <g id="Page-1" stroke="none" stroke-width="1" fill="none" fill-rule="evenodd">
        <g id="back-arrow" fill="#E0776D">
            <path d="M9.6277832,14.1548567 L9.6277832,11.7111034 C9.6277832,11.1100352 10.122487,10.6225737 10.7333031,10.6225737 L16.756424,10.6225737 C17.4105777,10.6225737 17.9404423,10.0996604 17.9404423,9.45588894 L17.9404423,5.57795136 C17.9404423,4.93337416 17.4105777,4.41126663 16.756424,4.41126663 L10.7333031,4.41126663 C10.122487,4.41126663 9.6277832,3.92380513 9.6277832,3.32273689 L9.6277832,0.845143277 C9.6277832,0.16430861 8.82235637,-0.207129001 8.29249181,0.22876633 L0.455729584,6.66648111 C-0.0724995888,7.09995928 -0.0724995888,7.90004072 0.455729584,8.33432461 L8.29249181,14.7712337 C8.82235637,15.207129 9.6277832,14.8356914 9.6277832,14.1548567" id="back_arrow"></path>
        </g>
    </g>
</svg>