<?xml version="1.0" encoding="UTF-8" standalone="no"?>
<svg width="174px" height="199px" viewBox="0 0 174 199" version="1.1" xmlns="http://www.w3.org/2000/svg" xmlns:xlink="http://www.w3.org/1999/xlink">
    <defs>
        <filter x="-50%" y="-50%" width="200%" height="200%" filterUnits="objectBoundingBox" id="filter-1">
            <feOffset dx="4" dy="4" in="SourceAlpha" result="shadowOffsetOuter1"></feOffset>
            <feGaussianBlur stdDeviation="0" in="shadowOffsetOuter1" result="shadowBlurOuter1"></feGaussianBlur>
            <feColorMatrix values="0 0 0 0 0.822890094   0 0 0 0 0.810426932   0 0 0 0 0.781346222  0 0 0 0.7 0" in="shadowBlurOuter1" type="matrix" result="shadowMatrixOuter1"></feColorMatrix>
            <feMerge>
                <feMergeNode in="shadowMatrixOuter1"></feMergeNode>
                <feMergeNode in="SourceGraphic"></feMergeNode>
            </feMerge>
        </filter>
        <filter x="-50%" y="-50%" width="200%" height="200%" filterUnits="objectBoundingBox" id="filter-2">
            <feMorphology radius="1" in="SourceAlpha" operator="dilate" result="shadowSpreadInner1"></feMorphology>
            <feOffset dx="0" dy="0" in="shadowSpreadInner1" result="shadowOffsetInner1"></feOffset>
            <feGaussianBlur stdDeviation="0.5" in="shadowOffsetInner1" result="shadowBlurInner1"></feGaussianBlur>
            <feComposite in="shadowBlurInner1" in2="SourceAlpha" operator="arithmetic" k2="-1" k3="1" result="shadowInnerInner1"></feComposite>
            <feColorMatrix values="0 0 0 0 0.775271046   0 0 0 0 0.504263497   0 0 0 0 0.05874795  0 0 0 0.7 0" in="shadowInnerInner1" type="matrix" result="shadowMatrixInner1"></feColorMatrix>
            <feMerge>
                <feMergeNode in="SourceGraphic"></feMergeNode>
                <feMergeNode in="shadowMatrixInner1"></feMergeNode>
            </feMerge>
        </filter>
        <filter x="-50%" y="-50%" width="200%" height="200%" filterUnits="objectBoundingBox" id="filter-3">
            <feOffset dx="2" dy="2" in="SourceAlpha" result="shadowOffsetOuter1"></feOffset>
            <feGaussianBlur stdDeviation="0" in="shadowOffsetOuter1" result="shadowBlurOuter1"></feGaussianBlur>
            <feColorMatrix values="0 0 0 0 0.961710989   0 0 0 0 0.65036732   0 0 0 0 0.138542295  0 0 0 0.273913043 0" in="shadowBlurOuter1" type="matrix" result="shadowMatrixOuter1"></feColorMatrix>
            <feMerge>
                <feMergeNode in="shadowMatrixOuter1"></feMergeNode>
                <feMergeNode in="SourceGraphic"></feMergeNode>
            </feMerge>
        </filter>
    </defs>
    <g id="Page-1" stroke="none" stroke-width="1" fill="none" fill-rule="evenodd">
        <g id="logo" transform="translate(-7.000000, 0.000000)">
            <g id="bg">
                <path d="M91.1904472,0.306136566 C102.285587,0.306136566 164.540884,36.6817135 171.562932,48.9535949 C178.584979,61.2254764 177.268444,134.179161 171.562932,146.248512 C165.857419,158.317862 102.98917,194.89597 91.1904472,194.89597 C79.3917247,194.89597 16.3173115,155.682458 10.8179628,146.248512 C5.31861416,136.814565 6.91658244,60.3753461 10.8179628,48.9535949 C14.7193432,37.5318438 80.0953075,0.306136566 91.1904472,0.306136566 Z" id="base" fill="#F5F2EB" filter="url(#filter-1)"></path>
                <g id="inner" transform="translate(18.602941, 13.254902)">
                    <path d="M73.1116866,0.545987951 C82.6679362,0.545987951 136.288457,31.8762916 142.33655,42.4460697 C148.384643,53.0158477 147.250711,115.850895 142.33655,126.246233 C137.422389,136.641571 83.2739325,168.146315 73.1116866,168.146315 C62.9494406,168.146315 8.62341506,134.371696 3.88682314,126.246233 C-0.84976877,118.12077 0.52656216,52.28363 3.88682314,42.4460697 C7.24708413,32.6085093 63.5554369,0.545987951 73.1116866,0.545987951 Z" id="inner_bg" fill="#F6A623" filter="url(#filter-2)"></path>
                    <path d="M72.7324791,13.9182102 C80.7638117,13.9182102 125.827959,40.2490513 130.910941,49.1321808 C135.993923,58.0153103 135.040936,110.823597 130.910941,119.560122 C126.780946,128.296647 81.2731075,154.774093 72.7324791,154.774093 C64.1918507,154.774093 18.5347782,126.388982 14.5540172,119.560122 C10.5732563,112.731261 11.7299623,57.3999345 14.5540172,49.1321808 C17.3780722,40.864427 64.7011464,13.9182102 72.7324791,13.9182102 Z" id="inner_front" fill="#F5DA9D"></path>
                </g>
            </g>
            <path d="M107.529372,91.4485158 C107.483368,91.6588009 104.574496,119.183264 104.521901,119.683668 C104.165347,123.151857 106.682121,126.268717 110.149482,126.633151 C113.612903,126.997172 116.730592,124.472517 117.095026,121.005156 C117.459046,117.541735 114.934392,114.424047 111.470971,114.060027 L109.122622,113.813205 L109.615436,109.124387 L111.963786,109.371209 C114.895282,109.679321 117.529372,111.111451 119.387602,113.406174 C121.242306,115.696543 122.095897,118.566889 121.787784,121.498385 C121.151266,127.554447 115.708375,131.962013 109.656254,131.325909 C103.635654,130.693119 99.2256022,125.273869 99.8492343,119.037186 L102.801153,90.9515599 L107.529372,91.4485158 L107.529372,91.4485158 Z M69.9980161,116.055061 C69.8617673,117.351381 68.6952255,118.292423 67.4028454,118.156589 C66.1144055,118.021168 65.1729493,116.858567 65.3091981,115.562246 C65.4450327,114.269866 66.6076343,113.32841 67.8960742,113.463831 L67.9000144,113.464245 C69.1923945,113.600079 70.1338507,114.762681 69.9980161,116.055061 L69.9980161,116.055061 L69.9980161,116.055061 Z M97.046252,107.803313 L96.5534373,112.492131 L68.3102041,109.523647 C64.8467831,109.159627 61.7330351,111.684695 61.3690149,115.148116 C61.0045805,118.615478 63.5252945,121.732752 66.9887155,122.096772 C70.4560767,122.461206 73.5737649,119.936552 73.9381993,116.469191 L74.1846066,114.124782 L78.8773648,114.618011 L78.6309575,116.96242 C77.9944397,123.018481 72.5515483,127.426048 66.4954867,126.78953 C60.4433653,126.153427 56.0397389,120.710949 56.6762567,114.654888 C57.3119461,108.606706 62.7508974,104.198726 68.8030188,104.834829 L97.046252,107.803313 L97.046252,107.803313 Z M71.0318661,83.6287633 C64.9797447,82.9926597 60.5761183,77.5501824 61.2122219,71.498061 C61.8483255,65.4459396 67.2872768,61.0379589 73.3393982,61.6740625 C79.1826898,62.2882172 83.4914912,67.3821126 83.2130685,73.1770333 L81.2720414,91.6446719 L81.2917423,91.6467426 L80.1984393,102.048826 L75.5056811,101.555597 L78.4741645,73.3123643 C78.8381847,69.8489432 76.3131165,66.7351952 72.8457553,66.3707609 C69.3823342,66.0067406 66.2690003,68.5278687 65.9049801,71.9912898 C65.5405458,75.458651 68.0612597,78.5759251 71.5246807,78.9399453 L73.8730299,79.1867667 L73.3802153,83.8755847 L71.0318661,83.6287633 L71.0318661,83.6287633 Z M71.9388107,74.9997621 C70.6503708,74.8643416 69.7089146,73.70174 69.8451633,72.4054197 C69.9809979,71.1130396 71.1431854,70.1755236 72.4316253,70.3109441 C73.7240054,70.4467787 74.6698159,71.6058542 74.5339813,72.8982343 C74.3977326,74.1945546 73.2311908,75.1355967 71.9388107,74.9997621 L71.9388107,74.9997621 L71.9388107,74.9997621 Z M96.5126202,90.2906085 C97.8050003,90.4264431 98.7503967,91.5894588 98.6145621,92.8818389 L97.7067892,101.518721 C97.5709546,102.811101 96.4044128,103.752143 95.1120327,103.616308 L86.4869717,102.709778 C85.1945916,102.573943 84.2491952,101.410927 84.3850298,100.118547 L85.2928026,91.4816656 C85.4286373,90.1892855 86.5951791,89.2482434 87.8875592,89.384078 L96.5126202,90.2906085 L96.5126202,90.2906085 Z M112.99805,76.9409708 C113.133884,75.6485907 114.300012,74.7114888 115.592392,74.8473235 C116.884772,74.9831581 117.826643,76.1418195 117.690808,77.4341996 C117.554559,78.7305199 116.391958,79.6719761 115.099577,79.5361415 C113.807197,79.4003068 112.861801,78.2372911 112.99805,76.9409708 L112.99805,76.9409708 L112.99805,76.9409708 Z M114.192633,88.1651427 L85.933639,85.1950027 L86.4264536,80.5061847 L114.685448,83.4763247 C118.148869,83.8403449 121.266557,81.3156908 121.630991,77.8483295 C121.995011,74.3849085 119.469943,71.2711605 116.006522,70.9071403 C112.539161,70.5427059 109.421887,73.0634199 109.057867,76.5268409 C108.970485,77.3582195 109.052733,78.1675898 109.272047,78.9236433 L104.122227,78.3823754 L104.372776,75.9985646 C105.026924,69.9642746 110.459864,65.5755807 116.500165,66.2104419 C122.552286,66.8465455 126.959853,72.2894369 126.323749,78.3415583 C125.687646,84.3936797 120.244754,88.8012463 114.192633,88.1651427 L114.192633,88.1651427 L114.192633,88.1651427 Z M111.056841,118.00021 C112.349221,118.136045 113.290677,119.298646 113.154843,120.591026 C113.018594,121.887346 111.855992,122.828803 110.563612,122.692968 C109.271232,122.557133 108.325836,121.394118 108.462084,120.097797 C108.597919,118.805417 109.764461,117.864375 111.056841,118.00021 L111.056841,118.00021 L111.056841,118.00021 Z M72.719678,90.1601769 L71.8119052,98.7970585 C71.6760706,100.089439 70.5095288,101.030481 69.2171487,100.894646 C60.9939864,100.030357 53.6003626,106.017595 52.7360735,114.240758 C51.8713701,122.46786 57.8581944,129.865424 66.0813568,130.729713 C74.3084593,131.594417 81.7064373,125.603652 82.5711407,117.37655 C82.7065612,116.08811 83.8691628,115.146653 85.161957,115.278548 L93.7905441,116.189433 C95.0750438,116.324439 96.0017687,117.437688 95.8842033,118.859467 C95.0717518,127.044257 101.062303,134.406359 109.242124,135.266093 C117.469226,136.130796 124.863264,130.139617 125.727967,121.912515 C126.146653,117.92899 124.988058,114.018708 122.466102,110.913255 C119.945388,107.795981 116.361441,105.849711 112.377916,105.431025 C111.085535,105.295191 110.140139,104.132175 110.275974,102.839795 L111.183746,94.2029134 C111.319581,92.9105334 112.486123,91.9694913 113.778503,92.1053259 C122.005606,92.9700292 129.399229,86.9827908 130.263933,78.7556882 C131.128636,70.5285857 125.141397,63.134962 116.914295,62.2702587 C108.687192,61.4055554 101.293569,67.3927938 100.428865,75.6198963 C100.292617,76.9162166 99.1260748,77.8572587 97.8336947,77.7214241 L89.2086337,76.8148936 C87.9162536,76.679059 86.9708572,75.5160433 87.1071059,74.219723 C87.9718092,65.9926205 81.9806306,58.5985826 73.7535281,57.7338793 C65.5303658,56.8695901 58.136742,62.8568285 57.2720387,71.0839311 C56.4073354,79.3110336 62.3945738,86.7046573 70.6177362,87.5689465 C71.9101163,87.7047811 72.8555127,88.8677969 72.719678,90.1601769 L72.719678,90.1601769 L72.719678,90.1601769 Z" id="mark" fill="#F6A623" filter="url(#filter-3)"></path>
        </g>
    </g>
</svg>